<svg width="1280" height="720" xmlns="http://www.w3.org/2000/svg" xmlns:xlink="http://www.w3.org/1999/xlink" overflow="hidden"><defs><clipPath id="clip0"><rect x="0" y="0" width="1280" height="720"/></clipPath><clipPath id="clip1"><rect x="467" y="193" width="310" height="309"/></clipPath><clipPath id="clip2"><rect x="467" y="193" width="310" height="310"/></clipPath><clipPath id="clip3"><rect x="467" y="193" width="310" height="310"/></clipPath><clipPath id="clip4"><rect x="467" y="193" width="310" height="309"/></clipPath><clipPath id="clip5"><rect x="467" y="193" width="310" height="309"/></clipPath><clipPath id="clip6"><rect x="467" y="193" width="310" height="309"/></clipPath><clipPath id="clip7"><rect x="467" y="193" width="310" height="310"/></clipPath><clipPath id="clip8"><rect x="467" y="193" width="310" height="310"/></clipPath><clipPath id="clip9"><rect x="467" y="193" width="310" height="310"/></clipPath></defs><g clip-path="url(#clip0)"><rect x="0" y="0" width="1280" height="720" fill="#FFFFFF"/><path d="M375 349.5C375 203.421 493.645 85 640 85 786.355 85 905 203.421 905 349.5 905 495.579 786.355 614 640 614 493.645 614 375 495.579 375 349.5Z" stroke="#44D62C" stroke-width="8" stroke-miterlimit="8" fill="#323232" fill-rule="evenodd"/><path d="M473 349.5C473 256.992 547.768 182 640 182 732.232 182 807 256.992 807 349.5 807 442.008 732.232 517 640 517 547.768 517 473 442.008 473 349.5Z" stroke="#595959" stroke-width="6" stroke-miterlimit="8" fill="#44D62C" fill-rule="evenodd"/><text fill="#44D62C" font-family="Bahnschrift Condensed,Bahnschrift Condensed_MSFontService,sans-serif" font-weight="400" font-stretch="condensed" font-size="88" transform="matrix(0.921195 0.389101 -0.389101 0.921195 685.381 175)">M</text><path d="M0 0 17.6412 57.8946" stroke="#44D62C" stroke-width="7" stroke-linecap="round" stroke-linejoin="round" stroke-miterlimit="10" fill="#44D62C" fill-rule="evenodd" transform="matrix(0.996743 -0.0806475 -0.0806475 -0.996743 621.497 168.339)"/><path d="M653.932 167.576 634.412 109.21" stroke="#44D62C" stroke-width="7" stroke-linecap="round" stroke-linejoin="round" stroke-miterlimit="10" fill="#44D62C" fill-rule="evenodd"/><path d="M594.522 142.473C594.904 140.421 596.878 139.067 598.93 139.45 600.982 139.832 602.336 141.806 601.953 143.858 601.57 145.91 599.597 147.264 597.545 146.881 595.493 146.498 594.139 144.525 594.522 142.473Z" stroke="#44D62C" stroke-width="1.33333" stroke-miterlimit="8" fill="#44D62C" fill-rule="evenodd"/><path d="M672.803 142.28C673.185 140.228 675.159 138.874 677.211 139.257 679.263 139.639 680.616 141.613 680.234 143.665 679.851 145.717 677.878 147.07 675.826 146.688 673.774 146.305 672.42 144.332 672.803 142.28Z" stroke="#44D62C" stroke-width="1.33333" stroke-miterlimit="8" fill="#44D62C" fill-rule="evenodd"/><text fill="#44D62C" font-family="Bahnschrift Condensed,Bahnschrift Condensed_MSFontService,sans-serif" font-weight="400" font-stretch="condensed" font-size="88" transform="matrix(0.923895 -0.382646 0.382646 0.923895 557.022 190)">R</text><g clip-path="url(#clip1)"><g clip-path="url(#clip2)"><g clip-path="url(#clip3)"><path d="M225.853 378.995C213.069 377.485 196.52 372.676 196.52 370.474 196.52 369.136 201.78 357.446 204.403 352.958 206.295 349.716 208.6 346.972 214.082 341.427L221.275 334.15 221.613 329.668C221.799 327.204 221.824 325.187 221.669 325.187 221.512 325.187 220.17 325.801 218.687 326.55 217.204 327.301 215.166 327.926 214.159 327.942L212.328 327.968 210.978 332.108C208.52 339.645 203.851 347.017 197.365 353.598 192.959 358.067 188.845 361.005 183.593 363.433 177.566 366.218 177.013 365.784 179.557 360.277 180.542 358.146 181.348 356.307 181.348 356.194 181.348 356.079 180.012 356.137 178.38 356.322 176.69 356.513 175.285 356.456 175.119 356.187 174.959 355.927 176.529 353.115 178.608 349.938 180.688 346.761 182.17 344.089 181.902 343.999 181.634 343.909 179.93 344.705 178.114 345.765L174.814 347.692 174.794 350.081C174.77 352.866 174.626 352.975 167.593 355.453 153.992 360.243 136.309 360.776 122.622 356.808 116.421 355.011 113.581 353.656 113.581 352.499 113.581 351.137 117.192 342.977 119.411 339.324 120.438 337.634 122.535 334.893 124.072 333.232L126.866 330.216 125.279 327.07C122.466 321.494 122.185 316.125 124.426 310.764L125.207 308.894 120.785 304.217C118.352 301.646 115.224 297.869 113.834 295.826 112.443 293.783 110.515 291.416 109.55 290.57 104.952 286.533 102.969 284.124 101.147 280.366 100.085 278.176 99.169 276.31 99.1113 276.221 99.0536 276.129 97.4495 276.729 95.5469 277.555 89.4229 280.208 85.7427 280.907 77.8263 280.923 72.8083 280.932 70.4584 280.749 70.0239 280.315 69.1097 279.401 68.8572 271.826 69.5558 266.275 70.1962 261.189 71.8411 254.461 73.5774 249.828 75.8186 243.849 81.1809 235.57 86.7909 229.433L89.356 226.627 84.7244 224.196C79.206 221.3 65.9559 212.605 60.2534 208.136 50.849 200.766 44.7504 192.588 41.4739 182.958 34.5754 162.68 41.0952 136.863 59.1298 113.045 62.8301 108.158 72.4371 98.2037 77.7008 93.8023 83.9402 88.5851 92.6331 82.9996 100.179 79.3593 113.244 73.0562 121.704 70.8667 134.568 70.4584 144.611 70.14 149.781 70.8336 157.839 73.5815L162.902 75.3084 168.965 74.1061C177.706 72.3727 183.685 71.8174 193.605 71.8174 210.762 71.8174 223.758 74.6083 237.237 81.187 256.862 90.7655 269.192 106.67 274.009 128.617 275.014 133.196 275.137 135.119 275.1 145.907 275.072 154.301 274.825 159.353 274.3 162.286 273.611 166.141 273.615 166.588 274.351 167.189 276.247 168.737 282.524 173.469 282.681 173.469 282.777 173.469 282.998 171.933 283.174 170.055 283.903 162.281 287.433 153.694 292.391 147.633 295.035 144.402 300.329 139.585 301.239 139.585 302.011 139.585 304.133 142.845 304.777 145.022 305.406 147.153 305.995 147.723 306.379 146.574 307.101 144.403 310.573 149.999 312.105 155.809 315.208 167.574 310.573 180.17 300.494 187.363L297.238 189.686 298.467 191.818C301.438 196.971 301.765 199.183 302.225 217.215 302.74 237.404 303.424 241.215 308.135 250.12 309.433 252.574 310.146 253.219 311.815 253.452 312.757 253.584 313.921 254.885 316.494 258.683 323.66 269.269 329.291 282.928 332.548 297.625 333.41 301.52 334.542 306.081 335.06 307.763 336.457 312.283 337.705 320.464 337.523 323.912L337.365 326.936 333.825 328.31C325.61 331.501 315.11 332.951 305.631 332.206 296.908 331.522 286.54 328.372 286.54 326.407 286.54 324.855 289.78 317.884 292.137 314.367 293.462 312.39 296.157 309.214 298.129 307.306 302.015 303.544 302.51 302.615 300.322 303.193 296.665 304.16 296.34 303.091 299.056 299.037 302.048 294.574 302.388 293.4 301.99 288.905 301.625 284.776 299.53 273.569 298.729 271.463 298.326 270.404 297.743 270.14 294.687 269.636 287.85 268.506 281.999 265.496 277.27 260.671 275.464 258.829 274.913 258.475 275.156 259.318 275.618 260.925 274.527 261.187 271.327 260.235 267.751 259.175 267.631 259.207 268.667 260.96 269.16 261.795 269.93 262.477 270.377 262.477 271.39 262.477 272.637 263.842 275.404 267.977 279.663 274.344 283.839 284.971 286.294 295.694 286.984 298.703 287.884 302.388 288.295 303.881 289.3 307.53 290.042 314.623 289.524 315.636 288.58 317.482 278.64 320.107 272.535 320.122 270.536 320.128 268.783 320.317 268.642 320.546 268.277 321.137 271.092 334.459 272.323 337.973 273.873 342.399 275.792 351.502 276.66 358.551 277.689 366.904 277.666 369.331 276.551 370.316 274.324 372.283 260.662 376.503 251.391 378.091 247.039 378.837 229.699 379.45 225.853 378.995ZM243.061 373.208C245.418 372.917 249.394 372.21 251.898 371.636 257.103 370.446 266.434 366.969 267.331 365.887 268.586 364.375 265.987 346.71 263.129 337.325L261.975 333.532 256.177 332.625C248.855 331.48 233.055 331.197 230.331 332.162 228.152 332.936 220.686 340.457 217.112 345.481 214.484 349.174 209.971 358.299 207.954 363.998L206.658 367.661 207.784 368.393C209.086 369.238 216.481 371.715 217.699 371.713 218.297 371.713 219.094 370.016 220.642 365.44 223.135 358.077 226.484 350.718 229.209 346.608 231.839 342.648 231.943 344.07 229.477 350.278 225.484 360.33 222.24 371.852 223.15 372.749 224.104 373.686 236.811 373.98 243.061 373.208ZM150.589 354.281C155.644 353.52 162.954 351.364 164.524 350.173 165.314 349.573 165.151 349.493 163.122 349.477 155.965 349.428 147.735 344.863 143.374 338.523 142.179 336.788 141.544 336.314 140.414 336.314 139.515 336.314 138.843 336.646 138.624 337.199 136.673 342.107 134.018 350.664 133.719 353.002 133.575 354.126 133.781 354.3 135.58 354.575 139.343 355.147 145.671 355.022 150.589 354.281ZM131.64 348.415C132.553 345.792 134.111 341.996 135.101 339.978 136.897 336.319 136.982 335.302 135.492 335.302 135.059 335.302 133.57 334.685 132.184 333.93L129.662 332.558 128.206 334.308C125.151 337.986 120.036 349.562 121.036 350.536 121.599 351.085 128.922 353.507 129.493 353.333 129.761 353.251 130.727 351.037 131.64 348.415ZM260.228 323.329C259.629 320.04 259.016 317.236 258.861 317.096 258.706 316.957 258.71 317.536 258.873 318.381 259.033 319.227 259.427 321.957 259.75 324.449 260.398 329.442 260.74 330.835 261.09 329.903 261.212 329.576 260.824 326.617 260.228 323.329ZM323.002 326.82C324.837 326.263 327.397 325.34 328.691 324.769 330.975 323.757 331.044 323.662 331.044 321.512 331.044 318.744 329.74 311.054 328.563 306.88 327.71 303.854 327.59 303.703 325.692 303.256 324.602 302.998 319.988 302.764 315.439 302.736L307.168 302.682 303.049 306.998C298.804 311.448 296.568 315.024 294.356 320.898 293.397 323.452 293.221 324.453 293.647 324.965 294.278 325.728 299.645 327.424 300.071 326.995 300.222 326.844 300.786 325.409 301.323 323.805 301.862 322.202 303.177 319.069 304.25 316.842 307.604 309.873 309.271 308.833 306.981 315.139 305.035 320.5 303.214 327.28 303.565 327.85 304.125 328.758 319.256 327.955 323.002 326.82ZM215.636 320.636C220.501 309.072 221.099 304.55 219.085 294.54 217.89 288.608 214.568 275.804 214.101 275.337 214 275.238 211.922 275.427 209.482 275.76 204.416 276.452 204.642 275.93 206.806 281.947 208.627 287.014 209.657 292.586 209.971 299.066 210.141 302.6 210.735 306.689 211.561 310.016 212.542 313.971 212.888 316.706 212.916 320.736 212.939 323.712 213.104 325.988 213.285 325.793 213.467 325.6 214.524 323.278 215.636 320.636ZM191.463 318.918C191.463 318.56 192.061 317.996 192.791 317.664 193.951 317.136 194.083 316.84 193.833 315.307 193.59 313.809 193.691 313.556 194.54 313.556 195.979 313.556 196.782 311.496 196.104 309.55 195.626 308.177 195.672 307.992 196.492 307.992 197.784 307.992 198.084 306.95 198.405 301.365 198.596 298.003 198.504 296.397 198.107 296.151 197.438 295.736 196.52 297.806 196.52 299.729 196.52 300.522 196.184 301.096 195.631 301.239 194.662 301.493 192.474 304.93 192.474 306.195 192.474 306.627 192.141 306.981 191.734 306.981 190.855 306.981 189.704 308.839 189.697 310.269 189.694 310.949 189.404 311.232 188.808 311.131 188.321 311.048 187.923 311.131 187.923 311.31 187.923 312.526 190.655 320.065 191.015 319.841 191.262 319.69 191.463 319.273 191.463 318.918ZM263.464 298.764C264.316 295.579 263.232 283.235 261.606 277.618 260.966 275.404 260.96 275.401 257.443 274.567 255.505 274.108 253.075 273.363 252.039 272.91 251.005 272.457 250.053 272.086 249.925 272.086 249.795 272.086 251.334 275.332 253.345 279.298 255.356 283.264 258.209 289.522 259.687 293.205 261.166 296.887 262.55 299.901 262.766 299.901 262.982 299.901 263.296 299.389 263.464 298.764ZM124.547 287.213C125.747 286.632 126.73 285.978 126.73 285.762 126.73 285.544 125.83 285.248 124.73 285.099 119.446 284.392 117.199 279.713 118.908 272.977 119.233 271.696 119.079 271.517 116.831 270.553 115.495 269.98 113.944 269.578 113.385 269.661 111.733 269.903 110.445 272.715 110.445 276.077 110.445 281.242 112.927 285.267 117.374 287.314 120.017 288.532 121.875 288.505 124.547 287.213ZM173.099 285.279C179.059 282.102 182.785 277.086 183.986 270.626 185.088 264.702 182.975 257.802 178.727 253.448 176.327 250.988 172.032 248.329 170.447 248.322 169.191 248.316 163.458 252.949 161.21 255.788L159.589 257.835 161.239 258.855C165.407 261.436 167.322 264.966 167.247 269.93 167.189 273.818 166.094 276.157 162.999 279.011 160.176 281.613 156.538 282.599 152.745 281.79 151.378 281.5 150.184 281.335 150.093 281.427 149.476 282.043 155.269 285.716 158.591 286.816 159.286 287.045 162.138 287.165 164.929 287.081 169.535 286.942 170.29 286.775 173.099 285.279ZM319.407 274.602C317.708 270.482 314.011 263.515 311.725 260.128 310.68 258.58 309.886 257.924 309.055 257.924 306.595 257.924 303.548 252.628 300.723 243.438 299.502 239.468 299.253 238.969 299.504 240.984 300.012 245.064 302.135 251.808 304.079 255.505 305.605 258.408 306.088 258.938 307.21 258.945 307.94 258.949 308.797 259.119 309.112 259.324 309.882 259.823 316.282 270.408 318.616 275.045 319.646 277.09 320.59 278.663 320.713 278.539 320.837 278.415 320.25 276.643 319.407 274.602ZM157.859 270.525C158.38 269.682 157.208 268.714 156.511 269.412 155.927 269.995 156.292 271.075 157.073 271.075 157.319 271.075 157.672 270.827 157.859 270.525ZM271.872 253.5C271.87 253.291 271.4 252.351 270.827 251.41 270.052 250.141 269.636 249.847 269.213 250.269 268.791 250.692 269.02 251.231 270.1 252.358 271.635 253.96 271.874 254.115 271.872 253.5ZM94.056 222.231C94.6873 220.585 94.2968 219.979 91.7848 218.706 89.3344 217.466 89.1591 217.443 88.2447 218.27 86.7693 219.606 87.0583 220.18 89.9378 221.631 93.076 223.211 93.6473 223.295 94.056 222.231ZM139.373 222.686C139.373 222.496 137.6 220.505 135.432 218.261 133.264 216.017 130.767 213.281 129.882 212.184L128.272 210.187 126.489 211.037C125.509 211.506 124.707 212.163 124.707 212.5 124.707 212.836 126.983 215.344 129.764 218.071 134.65 222.861 134.899 223.03 137.097 223.03 138.349 223.03 139.373 222.875 139.373 222.686ZM83.8293 217.137C85.4045 215.711 84.8795 214.77 81.3317 212.664 76.4341 209.757 66.924 202.549 62.444 198.348L58.5929 194.737 56.5016 195.559C55.3515 196.01 54.4103 196.524 54.4103 196.7 54.4103 197.702 63.2476 205.284 69.3293 209.503 73.2344 212.211 82.2551 217.917 82.6915 217.955 82.8086 217.964 83.3207 217.596 83.8293 217.137ZM123.651 207.985C124.506 207.498 125.207 206.859 125.209 206.567 125.211 206.272 124.178 204.565 122.913 202.772 121.649 200.982 119.019 196.839 117.07 193.571 115.12 190.303 113.253 187.632 112.921 187.635 111.01 187.652 108.523 188.352 108.523 188.872 108.523 190.277 120.796 208.805 121.758 208.853 121.944 208.862 122.796 208.472 123.651 207.985ZM53.6681 192.459C54.6326 192.057 55.4219 191.514 55.4219 191.256 55.4219 190.998 54.6256 189.464 53.6523 187.847 52.679 186.231 51.4033 183.643 50.8175 182.097 49.6945 179.132 47.8538 171.017 47.8425 168.98 47.8366 167.906 47.6696 167.813 46.2555 168.095 45.3864 168.269 44.3622 168.411 43.9798 168.411 42.4921 168.411 43.4749 176.744 45.7423 183.353 47.1072 187.331 50.5019 193.192 51.4415 193.192 51.7015 193.192 52.7035 192.862 53.6681 192.459ZM110.759 183.546C111.039 183.283 110.491 181.532 109.392 179.173 107.105 174.265 103.466 164.919 103.466 163.952 103.466 163.385 102.867 163.279 100.685 163.459 99.1556 163.586 97.7538 163.841 97.5697 164.025 97.3858 164.209 97.5244 165.328 97.8777 166.512 98.6862 169.22 103.739 180.747 105.1 182.985 106.062 184.568 106.237 184.643 108.206 184.324 109.354 184.137 110.503 183.787 110.759 183.546ZM46.4759 163.896C47.6103 163.465 47.7401 163.069 48.0784 159.007 48.578 153.009 50.4572 145.529 53.1674 138.75 54.4073 135.649 55.4219 132.975 55.4219 132.808 55.4219 132.641 54.8555 132.505 54.1632 132.505 53.0984 132.505 52.6039 133.108 50.952 136.424 47.1105 144.135 44.2149 153.596 43.5115 160.734 43.1718 164.182 43.2066 164.366 44.1977 164.366 44.7717 164.366 45.7969 164.154 46.4759 163.896ZM266.065 156.631C259.849 125.668 235.641 106.606 204.122 107.854 200.267 108.006 196.776 108.324 196.364 108.56 195.738 108.919 195.979 109.797 197.851 113.949 200.693 120.263 204.586 131.885 204.98 135.237 205.263 137.645 205.225 137.767 204.403 137.088 203.917 136.688 202.941 135.209 202.23 133.801 199.284 127.958 193.095 119.61 188.002 114.607L184.969 111.628 182.779 112.495C178.905 114.029 173.094 117.973 169.673 121.39 163.613 127.445 160.179 135.073 159.719 143.504 159.579 146.077 159.617 148.182 159.803 148.182 159.99 148.182 161.899 147.191 164.045 145.98 168.509 143.46 172.247 141.992 178.044 140.482 181.484 139.585 183.811 139.406 193.233 139.314 203.784 139.21 204.569 139.135 208.405 137.857 210.63 137.115 214.499 136.151 217.003 135.715 223.783 134.532 231.922 135.255 231.922 137.039 231.922 137.288 230.045 138.817 227.749 140.435L223.576 143.378 225.4 143.53C226.516 143.624 228.278 143.214 229.951 142.471 233.256 141.004 240.219 136.319 244.174 132.904 247.958 129.634 248.906 129.773 248.74 133.572 248.671 135.113 248.159 137.702 247.601 139.327 247.043 140.951 246.691 142.387 246.823 142.518 246.955 142.649 247.63 142.384 248.323 141.929 249.017 141.474 250.078 141.102 250.68 141.102 251.674 141.102 251.745 141.288 251.449 143.141 251.269 144.262 250.535 146.645 249.818 148.435 249.101 150.226 248.593 151.909 248.689 152.176 248.784 152.443 251.997 154.271 255.83 156.238 259.66 158.205 263.643 160.355 264.679 161.015 267.051 162.527 267.174 162.145 266.065 156.631ZM101.483 158.942C101.687 158.726 101.532 157.071 101.14 155.263 99.3703 147.105 99.8801 139.715 102.736 132.128 103.416 130.322 103.972 128.654 103.972 128.422 103.972 127.955 99.657 125.93 98.6596 125.93 96.8883 125.93 93.3514 138.573 93.3514 144.904 93.3514 148.956 94.4103 156.014 95.4144 158.655 95.8793 159.878 96.0561 159.934 98.5101 159.644 99.9416 159.474 101.279 159.158 101.483 158.942ZM60.6867 123.746C64.2633 118.064 67.6794 113.357 71.5169 108.823 73.0065 107.064 74.1249 105.524 74.0022 105.401 73.6824 105.081 66.7845 112.399 63.4705 116.574 61.9251 118.521 59.4561 121.906 57.9843 124.095 55.894 127.205 55.459 128.171 55.9972 128.512 56.376 128.752 56.89 128.884 57.1393 128.805 57.3883 128.727 58.9847 126.45 60.6867 123.746ZM109.288 119.248C111.211 116.288 114.419 112.473 118.079 108.791L123.842 102.994 122.476 101.819C121.725 101.173 120.722 100.644 120.248 100.644 119.009 100.644 111.115 107.614 107.491 111.907 104.385 115.587 100.432 121.169 100.432 121.873 100.432 122.359 103.908 123.794 105.242 123.858 105.991 123.895 107.058 122.679 109.288 119.248ZM131.68 97.684C136.535 94.4224 145.095 89.7861 149.614 87.9712 152.557 86.7888 153.267 85.7088 151.866 84.5457 151.061 83.8781 140.839 87.8597 134.327 91.3773 128.755 94.387 123.695 97.5917 123.695 98.1108 123.695 98.4478 126.63 100.606 127.128 100.635 127.209 100.64 129.257 99.312 131.68 97.684ZM162.88 83.1749C167.126 81.8197 181.646 78.3917 183.14 78.3917 183.267 78.3917 183.371 78.1643 183.371 77.886 183.371 77.1055 181.054 77.2724 173.038 78.6303 165.752 79.8647 156.182 82.1876 155.413 82.9086 154.793 83.4904 155.573 84.9672 156.495 84.9569 156.952 84.9517 159.825 84.1499 162.88 83.1749ZM194.456 77.0616C194.571 76.9587 192.921 76.8746 190.788 76.8746 188.393 76.8746 186.911 77.0795 186.911 77.411 186.911 77.902 193.871 77.5798 194.456 77.0616Z" fill="#FFFFFF" transform="matrix(1.03719 0 0 1 426.777 122.613)"/></g></g></g><g clip-path="url(#clip4)"><g clip-path="url(#clip5)"><g clip-path="url(#clip6)"><path d="M225.072 379.689C218.096 378.954 207.673 376.347 201.049 373.679 197.724 372.34 197.588 372.219 197.864 370.836 198.334 368.485 203.484 357.485 206.094 353.257 207.721 350.622 210.75 347.102 215.36 342.492 221.886 335.964 222.226 335.522 222.588 333.105 223.125 329.52 223.124 325.748 222.587 325.748 222.336 325.748 220.751 326.433 219.064 327.27 216.049 328.766 213.909 329.216 213.909 328.356 213.909 328.116 214.792 326.004 215.87 323.662 218.425 318.115 220.285 312.637 221.073 308.341 221.583 305.559 221.579 303.981 221.05 300.223 220.312 294.967 215.832 276.701 215.128 276.075 214.624 275.627 206.083 276.572 205.52 277.138 205.327 277.333 205.863 279.413 206.713 281.761 208.854 287.677 209.847 292.878 210.365 300.886 210.648 305.252 211.212 309.115 211.921 311.541 212.788 314.505 213.043 316.749 213.077 321.689 213.117 327.618 213.01 328.345 211.438 332.851 208.484 341.323 205.108 346.68 198.215 353.835 193.663 358.561 189.621 361.558 184.474 364.025 178.583 366.848 178.173 366.532 180.681 361.103 181.655 358.996 182.451 357.132 182.451 356.96 182.451 356.789 181.081 356.803 179.407 356.992 177.088 357.255 176.363 357.182 176.363 356.685 176.363 356.327 177.809 353.843 179.577 351.165 183.786 344.792 183.649 345.067 182.783 344.734 182.372 344.577 180.417 345.413 178.438 346.594L174.84 348.74 174.84 351.134 174.84 353.529 172.24 354.648C158.163 360.704 137.288 361.977 123.207 357.638 116.081 355.441 114.461 354.673 114.464 353.491 114.467 352.075 118.433 343.263 120.62 339.812 121.543 338.355 123.536 335.853 125.048 334.252L127.798 331.339 125.823 327.449C123.967 323.792 123.85 323.296 123.886 319.198 123.915 315.865 124.185 314.258 125.033 312.374L126.142 309.909 121.85 305.398C119.489 302.918 116.046 298.775 114.199 296.193 112.352 293.611 109.644 290.559 108.182 289.411 105.299 287.148 103.084 284.049 101.028 279.398 100.214 277.558 99.482 276.538 99.0975 276.707 90.0603 280.7 87.1609 281.346 78.2916 281.349 72.1915 281.35 70.6922 281.209 70.2683 280.59 69.9404 280.111 69.8369 277.003 69.9894 272.218 70.1895 265.936 70.5 263.563 71.7672 258.626 73.2774 252.743 76.4799 245.407 80.0092 239.745 81.9401 236.648 86.6341 231.037 88.6352 229.434 89.4444 228.786 90.1036 227.986 90.1002 227.658 90.0965 227.329 87.8831 225.919 85.181 224.523 75.8189 219.689 61.1521 209.502 54.924 203.509 48.1348 196.975 43.5308 189.334 41.1216 180.601 39.482 174.657 38.9028 164.24 39.8513 157.754 43.1168 135.421 57.2603 112.022 78.0547 94.5511 87.3058 86.7785 100.601 79.1143 111.21 75.4392 128.136 69.5754 145.813 69.2636 159.522 74.587L163.275 76.0443 167.68 75.083C175.832 73.3038 184.432 72.421 193.867 72.3949 207.198 72.3579 216.86 73.8631 228.053 77.7201 239.51 81.6681 248.664 87.2659 256.714 95.2476 266.3 104.752 272.327 116.724 274.796 131.161 276.067 138.598 276.163 151.441 275.014 160.299 274.576 163.678 274.29 166.749 274.38 167.124 274.605 168.071 283.401 174.618 283.973 174.265 284.228 174.107 284.436 172.936 284.436 171.661 284.436 165.178 288.406 154.97 293.398 148.617 295.755 145.616 301.303 140.551 302.232 140.551 303.035 140.551 305.161 144.277 305.777 146.766 306.413 149.331 306.983 149.817 307.416 148.161 307.88 146.385 308.731 147.053 310.49 150.572 312.792 155.176 313.587 158.688 313.563 164.144 313.54 169.342 312.566 173.242 310.141 177.844 308.341 181.26 302.928 186.964 300.038 188.487 298.992 189.039 298.136 189.788 298.136 190.151 298.136 190.514 298.795 192.117 299.6 193.714 302.111 198.692 302.261 199.821 302.707 217.166 303.051 230.541 303.32 234.519 304.132 238.223 306.059 247.021 309.351 253.587 312.199 254.316 313.549 254.661 314.487 255.719 317.633 260.443 324.623 270.939 330.019 283.974 332.905 297.334 333.658 300.822 334.813 305.503 335.471 307.735 336.706 311.924 337.951 318.772 338.393 323.803 338.698 327.284 338.332 327.715 333.536 329.52 322.813 333.556 307.934 334.294 296.9 331.338 290.426 329.603 288.259 328.632 288.08 327.388 287.853 325.809 292.041 317.203 294.739 313.706 295.98 312.096 298.394 309.47 300.103 307.869 304.266 303.97 304.213 302.603 299.963 304.234 298.434 304.821 298.532 303.006 300.158 300.643 301.039 299.362 302.222 297.271 302.786 295.995 303.741 293.835 303.771 293.32 303.224 288.528 302.671 283.692 301.437 277.194 300.199 272.595 299.657 270.582 299.64 270.571 296.621 270.23 287.036 269.145 277.734 262.654 273.114 253.825 272.055 251.802 271.001 250.147 270.771 250.147 270.542 250.147 270.074 250.483 269.733 250.895 269.22 251.513 269.558 252.145 271.669 254.513 274.488 257.676 275.989 260.319 275.337 260.971 275.104 261.204 273.511 261.001 271.797 260.52 270.082 260.039 268.546 259.78 268.382 259.943 267.813 260.513 270.274 263.781 271.393 263.94 272.991 264.168 278.087 271.973 281.036 278.71 283.651 284.685 285.401 290.454 288.149 302.154 290.431 311.869 290.854 315.706 289.762 316.798 288.364 318.196 281.107 320.129 274.918 320.752 271.642 321.082 268.912 321.381 268.852 321.418 268.574 321.587 271.877 336.089 273.017 339.701 275.707 348.23 278.168 363.375 277.757 368.876 277.597 371.02 277.448 371.227 275.304 372.274 269.515 375.1 257.17 378.361 247.918 379.506 243.933 379.999 229.145 380.118 225.072 379.689ZM248.412 374.197C255.96 372.77 266.155 369.323 268.312 367.467 269.255 366.656 269.228 364.947 268.143 356.445 267.127 348.489 264.093 335.764 262.925 334.556 262.042 333.645 248.339 332.128 240.801 332.108 230.877 332.082 230.317 332.307 223.864 338.925 216.374 346.605 212.197 353.512 208.081 365.019 206.753 368.734 206.71 369.073 207.505 369.654 208.696 370.525 217.901 373.533 218.796 373.343 219.233 373.251 220.348 370.738 221.562 367.109 224.374 358.706 229.615 347.88 230.461 348.727 230.574 348.839 229.842 351.193 228.836 353.956 225.346 363.541 222.533 373.609 223.167 374.244 224.498 375.574 241.288 375.543 248.412 374.197ZM153.779 355.425C158.115 354.503 164.726 352.336 165.964 351.431 166.757 350.852 166.286 350.689 162.359 350.187 154.914 349.236 148.58 345.491 144.106 339.396 142.389 337.058 142.069 336.848 140.394 336.972 138.514 337.112 137.522 336.788 132.78 334.486L130.043 333.157 128.344 335.161C126.311 337.558 123.139 343.54 121.53 348.012 120.409 351.129 120.4 351.275 121.292 351.927 122.112 352.527 129.428 355.176 130.263 355.176 130.44 355.176 131.432 352.703 132.467 349.681 134.466 343.84 136.641 339.391 137.656 339.065 138.054 338.937 137.83 340.169 137.026 342.531 135.143 348.067 133.631 353.969 133.828 355.01 133.96 355.702 134.646 356.022 136.537 356.273 140.224 356.762 149.675 356.297 153.779 355.425ZM262.619 331.189C262.619 327.442 257.707 305.037 254.921 296.075 252.836 289.368 252.525 290.594 254.455 297.909 256.399 305.273 258.714 316.687 259.844 324.479 260.33 327.828 260.953 330.853 261.228 331.202 261.875 332.023 262.619 332.016 262.619 331.189ZM323.759 328.332C325.992 327.711 328.846 326.705 330.101 326.095L332.385 324.987 332.276 321.181C332.165 317.243 330.5 308.418 329.345 305.646 328.688 304.067 328.671 304.061 322.925 303.426 319.756 303.076 315.141 302.875 312.67 302.98L308.177 303.17 303.423 308.112C299.495 312.196 298.268 313.881 296.351 317.822 295.075 320.444 293.904 323.376 293.748 324.337 293.473 326.028 293.545 326.12 295.932 327.147 297.289 327.73 299.069 328.282 299.886 328.373 301.3 328.53 301.439 328.364 302.722 324.987 306.201 315.824 308.649 312.458 306.053 320.406 304.323 325.704 303.893 328.768 304.793 329.383 306.13 330.296 319.322 329.565 323.759 328.332ZM195.425 316.778C195.289 316.424 195.478 315.957 195.844 315.74 196.794 315.178 197.673 313.336 197.673 311.906 197.673 311.233 197.992 310.019 198.383 309.209 199.259 307.392 199.82 299.83 199.282 297.08L198.885 295.051 197.772 297.187C197.159 298.362 196.658 299.796 196.658 300.374 196.658 300.952 196.325 301.553 195.918 301.709 195.511 301.865 194.562 303.043 193.81 304.328 193.057 305.612 191.448 307.969 190.234 309.565L188.027 312.468 189.357 316.698C190.089 319.024 190.785 321.255 190.903 321.656 191.048 322.149 191.851 321.584 193.395 319.903 194.647 318.538 195.561 317.132 195.425 316.778ZM162.822 311.823C165.619 310.184 165.818 309.859 163.551 310.637 161.348 311.392 158.98 313.228 157.27 315.507L155.868 317.376 158.156 315.296C159.414 314.153 161.514 312.59 162.822 311.823ZM264.69 299.237C265.617 295.836 264.582 284.748 262.686 277.777 262.131 275.733 262.115 275.723 258.778 275.151 256.935 274.836 254.225 273.989 252.757 273.271 251.288 272.552 249.946 271.964 249.774 271.964 249.602 271.964 251.152 275.218 253.219 279.195 255.286 283.171 258.272 289.622 259.855 293.528 261.437 297.435 262.834 300.803 262.959 301.012 263.495 301.911 264.142 301.247 264.69 299.237ZM325.049 286.894C322.969 279.312 317.88 268.14 313.394 261.309 312.021 259.219 311.213 258.478 310.176 258.358 306.739 257.96 303.305 250.212 300.351 236.193L298.641 228.075 298.898 232.895C299.512 244.392 302.785 255.857 306.521 259.592 307.18 260.252 308.018 260.682 308.382 260.548 309.488 260.143 310.08 260.83 313.849 266.892 317.777 273.211 322.715 283.003 324.538 288.086 325.166 289.837 325.78 291.169 325.903 291.046 326.026 290.923 325.642 289.054 325.049 286.894ZM252.533 289.381C251.935 288.352 251.79 288.681 252.28 289.957 252.454 290.411 252.703 290.675 252.834 290.544 252.964 290.413 252.83 289.89 252.533 289.381ZM125.099 288.581C126.324 287.954 127.638 286.952 128.02 286.356 128.696 285.302 128.649 285.274 126.212 285.311 123.068 285.358 121.285 284.245 120.011 281.438 118.855 278.893 118.784 277.081 119.75 274.769 120.589 272.762 120.435 272.552 116.969 270.98 113.522 269.416 112.689 269.589 111.462 272.125 108.396 278.457 111.753 286.63 118.392 288.999 121.112 289.97 122.567 289.879 125.099 288.581ZM173.576 286.715C187.785 279.719 189.33 260.554 176.431 251.277 175.162 250.364 173.273 249.363 172.234 249.051 170.455 248.518 170.2 248.593 167.818 250.34 166.429 251.361 164.015 253.574 162.455 255.259 159.758 258.172 158.947 259.787 160.18 259.787 161.483 259.787 164.903 263.184 166.024 265.592 170.332 274.843 162.163 284.879 152.566 282.127 149.029 281.112 149.561 283.26 153.406 285.513 157.855 288.121 160.427 288.76 165.578 288.542 169.598 288.371 170.742 288.11 173.576 286.715ZM124.609 279.829C124.609 279.41 124.394 279.068 124.131 279.068 123.492 279.068 123.033 279.86 123.439 280.266 124.01 280.837 124.609 280.614 124.609 279.829ZM75.429 273.321C74.7784 272.67 74.6971 274.071 75.2721 276.024 75.6238 277.218 75.6553 277.192 75.8095 275.578 75.8996 274.636 75.7284 273.62 75.429 273.321ZM90.1607 271.674C93.8506 270.614 98.0286 268.644 98.3379 267.818 98.4766 267.447 97.9175 265.546 97.0956 263.592 94.0646 256.389 93.0111 253.386 92.6558 250.934 92.4557 249.553 92.0673 248.348 91.7927 248.256 91.5079 248.162 91.3924 246.898 91.5238 245.313 91.6749 243.491 91.562 242.536 91.1957 242.536 90.3106 242.536 86.6237 247.498 84.7623 251.194 81.7728 257.13 80.5471 261.734 79.7195 270.136L79.4249 273.127 83.4246 272.794C85.6245 272.61 88.6557 272.107 90.1607 271.674ZM158.625 271.686C159.163 271.038 159.138 270.759 158.482 270.104 157.56 269.182 156.574 269.591 156.574 270.896 156.574 272.558 157.58 272.945 158.625 271.686ZM75.2362 269.564C75.1076 269.071 74.9939 269.352 74.9835 270.189 74.9732 271.026 75.0785 271.43 75.2174 271.087 75.3564 270.743 75.3649 270.058 75.2362 269.564ZM225.326 231.133C231.51 229.433 243.338 222.77 243.338 220.987 243.338 219.933 237.498 214.82 232.8 211.762 228.405 208.9 223.187 206.595 218.148 205.29 215.357 204.567 205.34 203.394 204.776 203.724 204.637 203.806 202.448 204.124 199.912 204.431 197.376 204.739 193.837 205.465 192.048 206.046 188.092 207.33 179.681 211.239 179.199 212.018 178.744 212.755 180.58 215.417 184.057 219.059 190.671 225.988 197.072 229.836 205.03 231.668 209.092 232.603 221.132 232.286 225.326 231.133ZM298.482 225.697C298.32 225.293 298.2 225.413 298.176 226.004 298.154 226.539 298.274 226.838 298.442 226.67 298.611 226.501 298.629 226.064 298.483 225.697ZM95.4265 220.969C96.9264 216.626 102.524 206.122 107.456 198.393 108.24 197.164 108.152 196.909 104.653 190.275L101.04 183.425 100.136 189.209C98.5984 199.034 94.3943 209.804 89.2864 217.004 88.063 218.728 87.062 220.38 87.062 220.674 87.062 221.348 92.6394 224.273 93.6364 224.122 94.0432 224.061 94.8487 222.642 95.4265 220.969ZM143.551 223.229C145.83 222.657 149.978 221.069 152.769 219.701 164.28 214.059 171.044 206.4 172.047 197.872 172.502 194.004 171.711 192.093 166.879 185.384 164.639 182.275 161.495 177.166 159.891 174.031 156.958 168.296 156.906 167.964 158.847 167.285 159.132 167.185 158.941 166.216 158.402 165.021 157.692 163.446 157.132 162.893 156.129 162.776 154.94 162.638 154.668 162.191 153.569 158.563 152.487 154.991 152.337 153.498 152.318 146.132 152.298 138.267 152.382 137.514 153.704 133.701 158.088 121.053 168.874 111.065 183.212 106.377 190.333 104.049 195.194 103.351 204.95 103.256 212.546 103.183 214.564 103.304 214.771 103.845 214.915 104.22 215.748 104.519 216.627 104.51 218.057 104.495 218.131 104.424 217.34 103.824 216.558 103.231 216.438 101.891 216.292 92.1796 216.202 86.144 215.971 81.0491 215.779 80.8576 215.588 80.6662 215.413 80.7189 215.39 80.9747 215.367 81.2305 215.082 84.4703 214.756 88.1743 213.821 98.7942 212.499 96.6351 212.425 84.367 212.381 77.2164 213.099 78.0011 205.804 77.1319 200.728 76.527 188.052 76.4614 187.149 77.0353 186.671 77.3388 187.077 79.1861 188.831 84.6896 190.103 88.6795 191.026 92.0613 190.882 92.2049 190.078 93.0092 184.481 80.8978 184.481 78.353 184.481 77.0891 183.238 77.0065 177.278 77.874 166.695 79.4142 155.052 82.331 155.052 83.4417 155.052 84.2493 158.92 89.4833 162.015 92.8644 163.425 94.4038 166.308 96.9154 168.423 98.4457 172.336 101.278 173.211 102.325 171.162 101.722 166.732 100.419 158.561 93.4426 154.749 87.7076 153.477 85.7951 152.104 84.2304 151.696 84.2304 148.138 84.2304 123.594 96.6007 123.594 98.3942 123.594 98.8768 129.866 103.16 134.249 105.671 137.619 107.602 144.002 109.9 149.471 111.153 156.312 112.721 156.764 113.256 150.993 112.958 142.429 112.517 130.999 108.077 123.908 102.437 122.546 101.353 121.053 100.467 120.591 100.467 119.378 100.467 111.031 107.898 107.367 112.239 104.141 116.062 100.254 121.57 100.254 122.319 100.254 123.582 114.598 127.913 122.072 128.907 124.444 129.222 130.076 129.402 134.587 129.307 139.099 129.212 142.939 129.283 143.12 129.464 143.537 129.881 140.966 130.701 137.073 131.391 133.229 132.073 121.794 132.075 117.505 131.394 112.278 130.564 107.942 129.384 103.362 127.544 101.024 126.605 98.8996 125.836 98.6402 125.836 97.9598 125.836 96.032 130.48 94.6385 135.477 93.6948 138.86 93.4346 141.047 93.431 145.625 93.426 151.855 94.7402 159.342 96.0262 160.409 96.5577 160.85 98.1105 160.729 102.482 159.907 114.218 157.697 122.744 154.394 132.336 148.342 134.81 146.781 136.959 145.628 137.111 145.781 137.564 146.234 132.854 150.478 129.113 152.988 121.251 158.263 110.7 162.293 101.748 163.441 97.7916 163.949 97.2098 164.15 97.2098 165.009 97.2098 166.291 101.784 177.337 104.205 181.903 106.085 185.447 106.093 185.454 108.065 185.297 111.927 184.988 121.882 181.59 128.414 178.352 132.423 176.365 137.17 173.471 140.516 170.975 143.544 168.717 146.112 166.959 146.222 167.068 146.704 167.551 143.301 171.277 139.506 174.422 132.473 180.249 122.468 185.471 114.968 187.228 113.434 187.587 111.322 188.086 110.275 188.336 109.229 188.587 108.372 189.028 108.372 189.316 108.372 190.652 118.589 206.441 121.593 209.747 122.68 210.943 135.193 202.107 141.606 195.615 145.791 191.378 151.612 184.071 153.537 180.639 153.77 180.222 154.119 180.04 154.313 180.233 154.813 180.733 151.908 186.735 149.177 190.842 144.486 197.898 135.632 206.207 128.141 210.582 126.198 211.716 124.609 212.904 124.609 213.22 124.609 213.536 126.989 216.152 129.897 219.033 135.994 225.07 136.096 225.102 143.551 223.229ZM87.5886 213.358C93.0227 204.811 96.8846 194.86 98.5188 185.195L99.4185 179.873 96.5053 172.882C92.7509 163.872 91.1358 157.557 90.7671 150.445 90.4329 143.999 91.0592 138.538 92.8328 132.435 93.5217 130.064 94.0139 128.053 93.9267 127.965 93.8394 127.878 92.4113 128.378 90.7531 129.076 81.3515 133.033 71.19 134.085 54.5982 132.821 52.9549 132.695 52.7339 132.863 51.434 135.223 49.1344 139.397 46.041 147.75 44.7291 153.328 43.2107 159.783 42.6403 164.673 43.3543 165.114 44.0828 165.565 53.4229 163.566 58.9019 161.788 64.8632 159.853 72.4485 156.118 78.3468 152.213 80.9486 150.491 83.2043 149.209 83.3593 149.364 83.8298 149.834 78.1712 154.967 74.3727 157.516 66.5234 162.782 56.3163 166.808 47.7861 168.001 44.763 168.424 43.238 168.865 43.043 169.373 42.5692 170.608 43.8659 178.845 45.1977 183.06 46.4774 187.111 49.775 193.146 51.2002 194.045 52.4219 194.816 66.8083 187.324 71.8557 183.289 74.0439 181.539 78.3604 177.435 81.4481 174.168 84.5357 170.901 87.062 168.567 87.062 168.982 87.062 170.647 82.0679 177.12 76.9774 182.053 70.8125 188.027 65.4133 191.847 58.9005 194.842 56.4043 195.99 54.2567 197.034 54.1279 197.163 53.7774 197.513 57.3982 201.12 61.6925 204.698 66.4901 208.695 72.3456 212.779 78.4574 216.391 84.0264 219.682 83.4457 219.874 87.5886 213.358ZM268.2 162.347C268.2 158.176 264.449 145.711 261.335 139.536 253.045 123.094 239.81 113.295 219.744 108.745 215.06 107.682 199.465 107.501 197.076 108.481L195.719 109.039 198.004 114.233C200.278 119.398 205.284 133.853 205.284 135.252 205.284 136.742 204.248 135.91 202.974 133.394 200.255 128.029 194.05 119.824 188.817 114.674L185.467 111.377 180.788 113.77C169.754 119.415 162.614 128.305 160.413 139.134 159.461 143.82 159.352 149.176 160.208 149.176 160.533 149.176 161.852 148.5 163.141 147.673 166.796 145.328 172.101 143.088 177.371 141.665 181.783 140.473 183.16 140.352 193.398 140.253 203.982 140.15 204.833 140.069 208.873 138.784 214.98 136.843 219.977 135.977 224.736 136.035 232.619 136.131 233.293 137.113 228.012 140.804 226.015 142.2 224.418 143.57 224.463 143.849 224.663 145.11 227.981 144.59 231.922 142.678 235.633 140.878 245.274 134.125 246.859 132.215 247.223 131.777 247.979 131.418 248.539 131.418 249.484 131.418 249.533 131.638 249.214 134.453 249.025 136.122 248.425 138.784 247.88 140.367 246.556 144.217 246.601 144.373 248.694 143.138 251.461 141.506 252.154 141.695 251.788 143.982 251.62 145.033 250.906 147.311 250.201 149.046 249.496 150.781 248.919 152.425 248.919 152.699 248.919 152.974 251.83 154.686 255.388 156.503 258.946 158.321 263.113 160.594 264.648 161.555 267.974 163.637 268.2 163.688 268.2 162.347ZM83.0029 128.924C88.5567 127.744 93.5587 126.316 94.7052 125.583 95.1415 125.304 96.4514 123.294 97.6159 121.116 106.383 104.724 123.465 90.8362 146.68 81.226 149.471 80.0708 152.151 78.9042 152.635 78.6337 153.12 78.3631 153.962 78.1418 154.508 78.1418 155.83 78.1418 156.314 77.2721 155.186 76.9229 146.399 74.2025 134.737 74.0927 123.848 76.6279 109.903 79.8745 93.2019 88.5591 80.5274 99.1544 75.2262 103.586 66.0901 113.067 62.3942 117.972 58.4269 123.237 55.0965 128.186 55.0965 128.816 55.0965 129.091 56.2952 129.446 57.7602 129.606 59.2253 129.765 61.2232 129.99 62.1999 130.104 66.3638 130.593 78.3502 129.913 83.0029 128.924ZM227.333 82.7448C227.493 82.4858 227.146 82.1225 226.563 81.9374 225.359 81.5551 224.811 81.8758 225.305 82.6745 225.716 83.3406 226.938 83.3829 227.333 82.7448ZM221.589 80.4052C220.65 79.9975 219.166 79.6712 218.291 79.6801 216.782 79.6954 216.751 79.7347 217.685 80.4411 218.229 80.8527 219.705 81.1772 220.983 81.1662L223.296 81.1464 221.589 80.4052Z" fill="#888D93" transform="matrix(1.0373 0 0 1 426.136 122.193)"/></g></g></g><g clip-path="url(#clip7)"><g clip-path="url(#clip8)"><g clip-path="url(#clip9)"><path d="M228.587 381.675C223.313 381.16 218.211 380.26 213.02 378.93 207.426 377.498 200.745 375.16 199.775 374.295 198.835 373.456 206.072 358.207 209.827 353.114 212.334 349.715 217.701 344.09 221.659 340.714 223.896 338.806 224.221 338.266 224.558 335.903 225.021 332.656 225.123 326.857 224.717 326.857 224.554 326.857 222.701 327.685 220.598 328.696 218.495 329.708 216.648 330.409 216.493 330.255 216.339 330.1 217.253 327.491 218.524 324.458 224.36 310.535 224.574 307.439 220.854 290.666 220.022 286.913 219.444 283.738 219.57 283.612 220.156 283.026 225.212 300.928 225.798 305.663 226.207 308.97 224.937 315.066 222.668 320.693 221.71 323.069 220.926 325.198 220.926 325.424 220.926 326.22 222.099 325.818 225.103 323.993 226.771 322.98 228.284 322.298 228.464 322.479 228.893 322.907 229.511 327.906 229.565 331.384L229.608 334.123 232.034 333.806 234.46 333.489 232.454 334.23C231.125 334.721 228.49 336.917 224.638 340.745 218.244 347.1 214.326 351.927 211.457 356.989 209.356 360.696 206.116 368.69 206.116 370.167 206.116 371.367 209.545 373.288 214.888 375.081 221.266 377.22 221.042 377.339 223.247 370.65 225.089 365.067 228.266 357.5 228.77 357.5 228.907 357.5 228.455 359.281 227.767 361.458 225.771 367.769 223.993 374.51 223.992 375.77 223.99 377.699 225.981 378.092 235.992 378.14 247.854 378.196 255.68 376.794 265.261 372.895 271.749 370.254 271.627 370.41 271.235 365.248 270.629 357.289 268.863 347.775 266.598 340.269 265.577 336.885 265.107 336.009 264.194 335.792 260.317 334.869 251.094 333.917 243.398 333.644 231.844 333.236 233.65 332.304 245.951 332.328 253.708 332.344 257.226 332.737 263.443 334.287 264.681 334.595 264.847 334.492 264.847 333.415 264.847 328.854 259.375 304.064 256.077 293.683 253.925 286.907 249.325 275.369 246.656 270.051 245.426 267.599 244.43 265.301 244.445 264.944 244.458 264.587 245.859 263.637 247.557 262.832 251.109 261.148 252.206 261.198 257.411 263.28 259.293 264.033 260.949 264.534 261.09 264.392 261.402 264.08 259.914 261.059 258.851 259.846 258.428 259.363 258.232 258.587 258.413 258.114 258.696 257.376 259.294 257.298 262.688 257.553 264.859 257.716 267.899 258.191 269.444 258.61 270.989 259.029 272.445 259.184 272.681 258.954 272.916 258.725 271.61 256.948 269.778 255.007 267.947 253.065 266.605 251.253 266.797 250.979 267.574 249.869 272.656 246.197 273.065 246.449 273.307 246.599 274.543 248.731 275.812 251.188 281.259 261.735 288.253 267.084 298.693 268.687 300.723 268.999 302.654 269.473 302.984 269.741 303.627 270.265 306.146 280.278 307.523 287.781 308.661 293.986 308.35 296.545 306.035 300.033 304.342 302.582 303.791 303.875 304.398 303.875 304.522 303.875 305.41 303.412 306.371 302.845 307.752 302.03 308.224 301.95 308.63 302.462 309.887 304.051 309.53 304.762 305.229 309.238 302.8 311.766 300.037 314.964 299.089 316.346 297.512 318.644 293.958 326.303 293.958 327.402 293.958 328.568 300.499 331.454 303.142 331.454 303.451 331.454 304.157 330.477 304.713 329.283L305.723 327.113 305.455 329.264C305.062 332.424 305.77 332.65 315.103 332.336 323.256 332.062 326.814 331.321 332.524 328.707L335.325 327.424 335.325 324.91C335.325 320.552 333.013 308.978 331.581 306.174 331.295 305.612 330.996 304.003 330.917 302.599 330.713 298.947 327.609 287.098 325.366 281.404 323.087 275.621 318.704 266.88 315.936 262.598 314.249 259.987 313.686 259.488 312.27 259.351 310.749 259.203 310.401 258.816 308.438 255.103 304.667 247.969 302.884 240.131 301.106 222.885 299.42 206.528 298.055 199.612 295.54 194.682 294.951 193.527 294.468 192.445 294.468 192.278 294.468 192.11 295.759 191.383 297.336 190.661 303.454 187.86 309.801 180.024 311.349 173.361 312.176 169.797 312.027 161.808 311.071 158.52 310.246 155.683 309.112 154.911 308.607 156.843 308.12 158.704 307.236 157.347 307.236 154.738 307.236 152.236 305.818 147.627 304.489 145.809 303.813 144.885 303.73 144.883 302.417 145.743 297.037 149.268 290.446 161.859 288.881 171.602 288.588 173.428 288.346 176.574 288.344 178.594 288.342 180.614 288.112 182.407 287.833 182.58 287.555 182.752 284.797 180.697 281.706 178.013 278.615 175.33 275.733 173.134 275.302 173.134 274.871 173.134 274.305 173.651 274.046 174.283 273.721 175.075 273.667 174.479 273.872 172.368 274.036 170.683 274.332 169.124 274.53 168.904 274.728 168.685 277.337 170.367 280.327 172.644 283.317 174.921 285.965 176.659 286.211 176.507 286.457 176.355 286.808 174.432 286.991 172.235 287.621 164.687 290.162 157.855 294.744 151.393 297.452 147.575 302.971 142.384 304.102 142.593 305.336 142.82 307.258 147.093 307.595 150.362 307.757 151.932 308.078 153.216 308.308 153.216 308.539 153.216 309.003 152.297 309.339 151.174 309.676 150.05 310.141 149.131 310.373 149.131 311.064 149.131 313.227 153.819 314.159 157.339 316.747 167.109 313.982 177.719 307.035 184.665 305.309 186.391 302.913 188.305 301.711 188.919 300.509 189.532 299.407 190.344 299.261 190.723 299.115 191.103 299.682 192.644 300.52 194.148 303.24 199.026 303.687 201.516 303.941 213.225 304.329 231.031 304.642 236.006 305.663 240.579 307.547 249.021 311.197 256.066 314.056 256.777 315.354 257.1 316.32 258.155 319.084 262.268 325.681 272.087 330.641 283.631 333.667 296.215 334.647 300.288 336.101 306.033 336.899 308.982 338.737 315.773 339.921 322.58 339.921 326.351L339.921 329.285 337.282 330.421C333.004 332.261 325.267 334.005 319.183 334.501 312.875 335.015 304.132 334.437 300.852 333.289 299.729 332.895 298.005 332.457 297.022 332.314 296.039 332.172 294.118 331.573 292.754 330.983 289.769 329.693 289.777 329.585 293.354 322.3 295.347 318.241 296.574 316.568 300.725 312.252 304.559 308.264 305.704 306.751 305.704 305.67 305.704 304.502 305.533 304.32 304.682 304.582 304.121 304.755 303.201 305.038 302.64 305.212 301.186 305.66 301.365 304.865 303.396 301.846 306.129 297.786 306.463 296.113 305.767 289.992 305.045 283.642 302.783 273.194 301.959 272.409 301.631 272.096 299.68 271.574 297.623 271.249 290.367 270.101 283.307 266.114 279.279 260.889 277.259 258.268 273.778 252.785 273.383 251.601 273.077 250.68 270.465 252.115 270.465 253.204 270.465 253.717 271.269 254.916 272.252 255.869 274.491 258.039 276.849 261.402 276.427 261.824 276.251 261.999 274.718 261.847 273.019 261.487 271.319 261.126 269.768 260.992 269.571 261.189 268.948 261.812 271.167 265.216 272.763 266.089 277.548 268.703 284.727 283.931 288.094 298.606 288.791 301.644 289.7 305.395 290.113 306.94 291.003 310.267 291.875 317.133 291.526 318.067 290.915 319.7 283.246 321.732 275.997 322.18 273.001 322.365 270.387 322.68 270.187 322.879 269.691 323.375 272.265 335.767 274.036 341.412 276.644 349.724 279.147 364.197 279.147 370.966L279.147 373.236 275.444 374.754C267.23 378.122 259.683 380.047 250.052 381.231 244.377 381.928 233.481 382.154 228.587 381.675ZM266.395 303.091C267.361 301.927 267.624 295.276 266.916 289.932 266.158 284.21 264.893 278.291 264.26 277.502 264.003 277.181 262.709 276.756 261.384 276.558 258.316 276.098 254.533 274.662 252.037 273.01 250.964 272.3 249.978 271.893 249.846 272.106 249.715 272.32 250.876 274.786 252.427 277.587 255.743 283.576 257.946 288.256 261.073 295.959 262.328 299.049 263.57 302.094 263.834 302.726 264.392 304.06 265.464 304.212 266.395 303.091ZM181.091 367.19C181.091 366.904 181.781 365.149 182.623 363.291 184.591 358.951 184.636 357.779 182.819 358.235 179.572 359.05 178.538 359.139 178.538 358.603 178.538 358.296 180.031 355.766 181.857 352.979 183.683 350.193 185.177 347.542 185.177 347.088 185.177 345.651 182.825 346.156 179.497 348.307 177.759 349.431 176.154 350.35 175.932 350.35 175.709 350.35 175.457 351.552 175.372 353.02L175.218 355.691 171.581 357.086C159.986 361.531 146.055 363.083 133.595 361.318 125.36 360.15 115.72 357.093 115.72 355.648 115.72 354.644 119.109 347.225 121.273 343.49 122.239 341.823 124.45 338.831 126.186 336.839L129.344 333.219 127.651 330.166C124.603 324.669 124.348 320.157 126.739 313.986L127.669 311.585 122.844 306.578C120.19 303.824 116.654 299.619 114.986 297.233 113.318 294.847 110.847 292.029 109.494 290.971 106.366 288.523 103.799 285.031 102.324 281.219 101.687 279.572 100.871 278.109 100.51 277.966 100.15 277.824 98.3116 278.394 96.4247 279.233 90.4523 281.889 86.5981 282.639 78.8044 282.661 73.1053 282.676 71.6646 282.535 71.2386 281.915 70.9082 281.434 70.8052 278.488 70.9618 273.999 71.2832 264.786 73.1752 256.936 76.8931 249.388 78.303 246.527 79.6673 244.055 79.9249 243.896 80.1825 243.736 80.8768 242.631 81.4678 241.438 82.0587 240.246 83.7147 238.007 85.1478 236.462 86.5808 234.917 87.3887 234.227 86.9431 234.93 86.4976 235.632 85.3295 237.608 84.3473 239.32 83.3652 241.033 82.2086 242.727 81.777 243.086 81.3454 243.444 80.9923 243.997 80.9923 244.314 80.9923 244.631 79.9786 247.533 78.7397 250.763 75.741 258.58 74.8205 263.327 74.7761 271.206 74.7227 280.656 74.2704 280.083 81.5076 279.72 88.064 279.39 92.4067 278.469 96.952 276.444L99.8885 275.136 99.8885 270.89C99.8885 267.174 99.6704 266.145 98.1437 262.66 95.4919 256.608 94.4049 252.992 93.7209 247.95 92.9577 242.324 92.5316 241.616 90.8545 243.192 88.8278 245.096 84.4561 252.309 82.8946 256.325 80.9592 261.303 79.485 268.11 79.4712 272.132 79.4616 274.947 79.594 275.406 80.4816 275.638 82.1349 276.071 81.65 276.887 79.8432 276.712 78.2143 276.555 78.1804 276.5 78.0202 273.744 77.6895 268.054 79.6144 259.541 82.5258 253.816 84.2248 250.475 87.1948 246.293 90.0725 243.188 92.5125 240.555 92.6063 240.34 92.9164 236.671 93.0928 234.584 93.4992 231.836 93.8195 230.564 94.4445 228.082 94.2008 227.289 93.0953 228.206 91.6942 229.369 76.4861 220.498 63.6282 211.017 51.3637 201.974 45.0745 193.242 41.5562 180.374 40.6651 177.114 40.4799 174.948 40.457 167.516 40.4325 159.61 40.5827 157.931 41.7581 152.961 45.0076 139.223 51.8054 125.632 61.5549 113.381 65.5666 108.34 75.5349 98.3724 80.7141 94.2232 93.5368 83.9505 107.66 76.9666 122.615 73.5037 125.934 72.7352 129.715 72.363 136.219 72.1646 144.207 71.9208 145.855 72.0183 150.774 73.0255 153.825 73.6502 158.141 74.8252 160.365 75.6366L164.409 77.1119 170.579 75.871C179.387 74.0998 186.226 73.4618 196.157 73.4847 212.804 73.5232 226.371 76.5201 239.445 83.0468 258.299 92.4585 270.231 107.295 275.015 127.273 276.783 134.659 277.264 140.126 276.936 149.131 276.471 161.911 275.829 161.829 275.813 148.988 275.797 136.825 275.289 132.757 272.715 124.21 268.149 109.044 258.039 96.4323 243.653 87.9572 237.621 84.4037 225.137 79.8577 218.801 78.9075 216.161 78.5117 216.202 78.453 215.528 83.6226 215.006 87.6236 214.085 86.3962 214.474 82.2173 214.703 79.7553 214.613 78.6261 214.157 78.2533 212.526 76.9172 189.643 75.9002 187.777 77.081 187.164 77.4695 187.182 77.978 187.905 80.5539 189.478 86.1604 188.437 85.858 186.664 80.1933L185.782 77.3762 182.6 77.47C175.285 77.6856 156.511 81.8045 155.464 83.4235 155.273 83.7188 155.365 84.4324 155.67 85.0093 156.521 86.6227 160.63 91.9025 163.203 94.6897 164.475 96.0663 165.055 96.9505 164.493 96.6546 162.809 95.7675 157.4 89.8409 155.377 86.6663 153.196 83.2436 154.037 83.2442 145.597 86.6598 135.802 90.6237 123.892 97.4185 123.892 99.0431 123.892 99.6128 125.828 101.199 129.254 103.434 132.204 105.359 134.617 107.12 134.617 107.349 134.617 108.744 129.431 105.983 123.033 101.181L121.408 99.9619 119.202 101.663C113.302 106.217 106.433 113.447 102.668 119.068 101.42 120.931 100.399 122.79 100.399 123.199 100.399 124.012 101.727 124.728 106.017 126.231 113.948 129.009 120.354 130.329 129.446 131.057 132.696 131.317 133.504 131.522 132.808 131.911 132.244 132.227 129.329 132.305 125.211 132.115 117.592 131.763 109.902 130.168 104.032 127.721 101.957 126.856 99.8621 126.149 99.3773 126.149 98.3086 126.149 96.3781 130.246 94.6853 136.108 93.689 139.557 93.5161 141.267 93.5746 147.088 93.6501 154.612 94.8705 161.105 96.3889 162.063 97.5179 162.775 106.449 161.311 113.328 159.287 116.189 158.446 121.372 156.391 124.846 154.721 128.319 153.051 131.306 151.684 131.483 151.684 132.327 151.684 126.202 155.6 122.175 157.635 116.22 160.645 109.948 162.653 103.136 163.73 100.086 164.213 97.4013 164.773 97.1703 164.975 96.6078 165.468 100.103 174.604 103.516 181.561L106.272 187.178 108.635 187.061C114.655 186.762 129.292 181.074 137.189 175.966 139.209 174.659 140.961 173.69 141.083 173.812 141.447 174.177 135.818 178.44 131.629 180.972 126.664 183.973 120.122 186.643 113.803 188.246 111.08 188.936 108.643 189.711 108.387 189.966 107.51 190.844 120.693 211.025 122.628 211.768 123.516 212.109 129.122 208.831 134.649 204.739 138.811 201.658 144.053 196.701 148.357 191.775 150.589 189.221 150.889 189.008 150.157 190.498 147.091 196.738 136.796 206.717 128.474 211.515 126.52 212.642 124.802 213.757 124.655 213.995 124.259 214.636 129.524 220.637 133.11 223.634 135.989 226.04 136.449 226.248 138.885 226.248 144.962 226.248 155.401 221.987 162.584 216.574 169.532 211.338 173.685 204.786 174.316 198.061 174.691 194.064 173.872 191.291 171.093 187.147 168.021 182.566 162.62 171.446 160.938 166.239 159.049 160.392 158.565 157.41 158.271 149.819 158.05 144.102 158.171 142.469 159.085 138.857 163.236 122.441 175.735 111.595 195.902 106.91 200.01 105.956 213.163 105.679 219.139 106.42 235.458 108.446 251.477 117.984 260.852 131.256 268.074 141.48 271.686 153.402 272.21 168.74 272.34 172.55 272.662 175.467 272.972 175.659 273.507 175.989 272.94 181.215 272.248 182.334 271.424 183.668 271.167 182.321 271.102 176.326 271.034 169.989 270.996 169.784 269.706 168.672 267.828 167.053 258.136 161.363 252.089 158.328 249.275 156.916 246.973 155.524 246.973 155.234 246.973 154.945 247.432 153.807 247.994 152.706 248.556 151.604 249.015 150.215 249.015 149.618 249.015 148.547 248.984 148.55 246.629 149.867 245.292 150.614 244.048 151.007 243.802 150.76 243.555 150.514 244.036 148.894 244.894 147.079 246.34 144.022 247.401 139.686 246.841 139.126 246.701 138.986 244.778 140.178 242.566 141.774 237.068 145.744 231.631 148.291 228.64 148.3 225.714 148.308 220.416 146.73 220.416 145.85 220.416 145.49 221.827 144.087 223.551 142.732 226.57 140.361 226.641 140.252 225.467 139.811 223.52 139.082 215.343 140.283 210.097 142.068 205.498 143.634 205.111 143.68 197.681 143.558 183.12 143.318 173.729 145.759 164.11 152.284 161.479 154.069 161.174 154.461 161.174 156.054 161.174 162.085 167.234 176.929 174.006 187.486 176.436 191.275 176.673 191.916 176.884 195.27 177.296 201.835 174.363 208.016 167.683 214.657 160.405 221.892 148.845 227.834 139.706 229.037 137.693 229.302 137.078 229.135 135.005 227.762 129.232 223.938 118.033 211.921 113.227 204.394 112.278 202.909 111.245 201.77 110.93 201.865 110.065 202.126 104.795 210.1 102.214 215.052 95.0146 228.867 93.5872 240.457 97.3446 254.592 98.2406 257.963 99.0911 261.355 99.2346 262.131 99.3781 262.907 99.6937 263.664 99.936 263.814 100.178 263.964 101.384 262.514 102.615 260.593 104.545 257.582 106.757 255.358 107.821 255.358 107.991 255.358 107.684 255.99 107.139 256.763 105.091 259.665 103.448 263.602 102.865 266.999 101.807 273.168 103.685 280.35 107.827 285.976 110.716 289.901 114.477 292.404 119.197 293.543 121.213 294.029 122.865 294.581 122.867 294.77 122.873 295.358 119.879 295.801 118.274 295.449 117.244 295.222 116.742 295.31 116.742 295.718 116.742 296.687 119.632 300.167 125.092 305.77L130.173 310.984 129.203 313.941C127.172 320.132 128.456 326.941 132.53 331.581 134.48 333.801 139.739 336.561 142.022 336.561 143.218 336.561 143.786 336.868 144.178 337.73 144.706 338.888 144.684 338.896 142.09 338.542 138.14 338.004 135.084 337.128 133.295 336.022 132.411 335.476 131.312 335.029 130.853 335.029 129.078 335.029 123.754 343.544 121.31 350.294L120.128 353.558 121.273 354.485C121.903 354.995 124.342 356.039 126.693 356.805 131.493 358.368 132.235 358.186 132.858 355.294 133.316 353.166 135.702 347.179 135.981 347.459 136.101 347.578 135.623 349.942 134.92 352.713 134.155 355.725 133.827 357.936 134.104 358.212 135.491 359.6 144.8 359.886 152.236 358.77 159.965 357.609 169.678 354.164 169.209 352.748 169.085 352.372 167.24 352 164.409 351.78 157.393 351.235 152.552 348.959 148.068 344.095 144.548 340.276 144.376 339.103 147.8 342.268 149.525 343.863 152.469 345.922 154.343 346.844 157.273 348.287 158.409 348.551 162.452 348.727 171.999 349.145 179.942 345.035 185.197 336.958 188.986 331.136 189.648 324.514 187.189 317.032L186.058 313.59 187.414 311.925C194.592 303.109 199.724 293.27 204.341 279.478 205.475 276.09 205.924 275.308 206.608 275.525 207.078 275.674 209.4 275.454 211.768 275.037 215.732 274.338 216.125 274.345 216.713 275.129 217.064 275.598 217.351 276.128 217.351 276.306 217.351 276.654 210.285 277.833 208.159 277.84 205.467 277.85 205.356 278.398 207.12 282.971 209.396 288.874 210.644 294.949 210.994 301.832 211.185 305.594 211.777 309.634 212.642 313.068 215.204 323.241 214.239 332.115 209.561 341.412 204.082 352.299 192.933 363.21 183.703 366.717 182.241 367.273 181.091 367.481 181.091 367.19ZM188.319 362.013C192.28 359.902 199.65 352.927 202.899 348.214 208.977 339.398 211.802 331.343 211.873 322.633 211.926 315.987 211.257 314.775 210.01 319.26 209.527 320.997 208.959 322.21 208.747 321.956 208.535 321.702 208.493 318.277 208.655 314.345 209.158 302.092 208.042 290.506 205.86 285.317L205.215 283.781 204.864 285.377C204.671 286.256 204.012 287.611 203.399 288.389 202.198 289.915 202.244 289.128 202.535 303.109 202.764 314.146 200.381 321.496 194.797 326.972 193.158 328.58 191.816 330.148 191.816 330.457 191.816 332.199 188.916 339.205 187.188 341.638L185.172 344.477 187.523 344.824C190.535 345.27 190.838 345.613 188.835 346.312 187.578 346.75 186.655 347.835 184.667 351.214 182.353 355.144 181.754 356.478 182.304 356.478 182.409 356.478 183.472 356.134 184.666 355.712 185.86 355.291 186.923 354.946 187.029 354.946 187.579 354.946 187.073 357.37 185.943 360.151 185.241 361.88 184.666 363.369 184.666 363.461 184.666 363.852 185.46 363.537 188.319 362.013ZM193.698 326.258C194.348 325.647 194.88 324.882 194.88 324.559 194.88 324.236 195.455 323.431 196.157 322.772 196.859 322.112 197.434 321.143 197.434 320.619 197.434 320.095 197.891 319.043 198.449 318.282 199.384 317.009 199.886 315.204 201.034 308.982 201.921 304.18 201.449 296.215 200.278 296.215 199.566 296.215 197.434 300.419 197.434 301.821 197.434 302.361 197.123 302.987 196.742 303.212 196.362 303.436 195.409 304.654 194.625 305.918 193.841 307.182 192.177 309.568 190.929 311.22 189.342 313.32 188.74 314.549 188.928 315.306 189.077 315.901 189.668 317.996 190.242 319.963 190.816 321.929 191.416 324.399 191.574 325.453 191.909 327.678 192.106 327.753 193.698 326.258ZM95.7209 225.458C96.0468 224.742 96.3136 223.919 96.3136 223.628 96.3136 221.852 103.554 207.962 107.943 201.317L109.736 198.602 106.014 191.358C103.967 187.374 101.961 183.729 101.556 183.258 101.151 182.787 100.628 181.638 100.394 180.704 100.16 179.771 98.686 175.893 97.119 172.087 91.0064 157.24 90.2814 145.118 94.6925 131.511 99.2053 117.591 110.685 103.894 126.701 93.3206 133.025 89.1455 146.295 82.6977 153.32 80.3869 156.529 79.3315 159.078 78.241 158.986 77.9635 158.496 76.4943 148.116 74.5724 140.654 74.5693 111.798 74.5574 77.9985 94.869 58.2226 124.106 56.4177 126.774 54.9421 129.349 54.9436 129.828 54.9476 131.167 57.6547 131.489 68.9907 131.5 76.8456 131.507 80.2503 131.297 83.7313 130.589 86.2209 130.083 88.369 129.78 88.5047 129.916 88.9713 130.383 81.8058 132.308 76.8085 133.058 70.7805 133.964 63.3626 134.023 57.5667 133.214 53.3273 132.621 53.2849 132.626 52.3413 133.851 50.6547 136.041 46.2246 147.179 44.719 153.015 43.9143 156.134 43.0971 160.438 42.9031 162.58 42.6008 165.916 42.6694 166.519 43.3821 166.793 44.5541 167.242 54.2814 165.205 60.0533 163.301 62.7217 162.421 67.7777 160.254 71.2888 158.486 76.5862 155.819 77.3685 155.538 75.8852 156.834 70.0194 161.959 57.4538 167.099 46.8531 168.71L42.9445 169.304 42.7883 171.742C42.5855 174.909 43.9383 182.062 45.5508 186.349 46.2508 188.21 47.7722 191.189 48.9318 192.97 50.8755 195.955 51.1556 196.185 52.5159 195.912 55.0412 195.407 69.9101 187.792 71.9407 185.963 73.0015 185.008 74.0357 184.397 74.2389 184.605 75.229 185.62 64.9166 192.91 58.2332 195.92 55.2613 197.258 53.9248 198.131 53.9248 198.735 53.9248 201.555 81.7218 221.95 84.2451 220.982 84.6587 220.823 85.9006 219.357 87.0049 217.725 92.1547 210.112 96.1686 201.495 98.3787 193.307 100.459 185.602 100.821 188.486 98.8186 196.809 96.9992 204.373 93.2947 212.543 88.7764 218.959 87.5443 220.709 86.6912 222.391 86.8807 222.697 87.2484 223.292 93.6388 226.625 94.5718 226.709 94.8778 226.736 95.3949 226.173 95.7209 225.458ZM76.3959 182.437C76.3959 181.806 81.9551 176.48 82.2774 176.802 82.4364 176.961 81.3848 178.384 79.9406 179.964 77.4973 182.638 76.3959 183.406 76.3959 182.437ZM270.465 163.409C270.465 160.846 268.975 154.317 267.104 148.685 261.144 130.741 248.737 117.942 231.197 111.643 222.996 108.698 218.902 108.048 208.669 108.068 196.183 108.092 195.208 108.508 197.434 112.87 198.95 115.842 198.648 116.07 197.039 113.169 196.273 111.788 195.266 110.424 194.8 110.137 193.736 109.482 189.773 110.57 189.773 111.519 189.773 111.876 190.485 112.844 191.354 113.669 193.35 115.562 198.969 123.052 198.956 123.8 198.95 124.109 198.096 123.327 197.058 122.063 193.523 117.761 187.556 111.849 186.748 111.849 185.516 111.85 179.936 114.619 176.593 116.889 166.573 123.694 160.792 133.889 160.266 145.683 159.986 151.958 160.031 152.011 163.682 149.674 167.755 147.067 173.522 144.584 178.797 143.168 183.527 141.898 184.721 141.791 195.136 141.704 206.134 141.612 206.474 141.577 211.223 140.053 213.891 139.196 217.991 138.216 220.333 137.875 224.767 137.228 231.386 137.425 232.188 138.228 232.466 138.505 231.007 139.881 228.549 141.658 226.293 143.29 224.531 144.88 224.635 145.191 224.739 145.501 225.478 145.93 226.278 146.144 229.395 146.978 237.261 142.974 245.44 136.39 247.828 134.468 249.97 133.01 250.2 133.15 250.801 133.514 250.171 137.012 248.672 141.63 247.96 143.825 247.506 145.749 247.663 145.906 247.82 146.062 248.976 145.588 250.232 144.852 251.489 144.115 252.667 143.513 252.85 143.513 253.406 143.513 252.56 146.637 251.003 150.33 250.192 152.254 249.661 154.043 249.823 154.305 249.985 154.567 253.035 156.243 256.6 158.03 260.166 159.817 264.457 162.107 266.136 163.119 269.874 165.373 270.465 165.413 270.465 163.409ZM162.845 332.623C161.597 330.716 161.661 325.417 162.976 321.755 164.117 318.576 168.043 314.09 169.683 314.09 171.529 314.09 172.602 315.915 172.826 319.436 173.116 323.991 171.485 328.759 168.607 331.762 166.018 334.464 164.225 334.732 162.845 332.623ZM156.532 316.727C157.85 314.265 163.466 310.291 165.166 310.618 165.721 310.725 165.03 311.351 163.216 312.384 161.671 313.265 159.615 314.813 158.647 315.825 156.754 317.805 155.72 318.245 156.532 316.727ZM323.117 304.326C321.037 304.085 319.198 303.738 319.031 303.555 318.556 303.035 328.152 303.809 329.109 304.368 330.159 304.98 328.673 304.97 323.117 304.326ZM150.512 296.332C149.564 294.562 148.406 287.511 148.406 283.513 148.406 271.863 153.288 260.578 161.844 252.451 167.282 247.285 175.473 242.646 175.473 244.731 175.473 245.127 176.529 245.964 177.82 246.591 180.683 247.982 185.335 252.266 187.28 255.303 189.954 259.477 190.931 263.481 190.713 269.365 190.534 274.199 190.371 274.903 188.592 278.503 185.559 284.639 180.783 288.955 174.506 291.229 171.245 292.411 163.346 292.69 161.174 291.699 160.1 291.21 160.345 291.164 162.715 291.412 174.148 292.607 184.7 284.687 186.813 273.323 187.947 267.228 185.801 260.173 181.376 255.442 178.91 252.806 173.814 249.74 171.899 249.74 171.276 249.74 169.288 250.917 167.48 252.355 162.533 256.292 158.186 261.997 160.134 261.997 160.935 261.997 164.234 265.103 164.962 266.542 167.322 271.21 165.369 276.96 160.597 279.395 158.619 280.404 155.108 280.645 153.258 279.899 151.862 279.337 150.83 280.208 151.471 281.407 151.831 282.079 151.76 282.401 151.205 282.614 150.228 282.989 150.243 284.19 151.242 285.716 151.799 286.565 151.867 287.032 151.47 287.277 151.08 287.518 151.014 289.115 151.257 292.431 151.607 297.2 151.441 298.069 150.512 296.332ZM160.05 274.152C160.387 273.815 160.663 273.093 160.663 272.549 160.663 272.004 161.065 271.261 161.557 270.898 162.296 270.351 162.334 270.121 161.778 269.565 161.221 269.008 160.991 269.046 160.444 269.786 160.081 270.277 159.3 270.679 158.709 270.679 158.118 270.679 157.389 271.139 157.088 271.701 155.984 273.762 158.422 275.78 160.05 274.152ZM116.171 291.618C115.155 291.081 113.301 289.504 112.051 288.114 107.367 282.905 106.798 275.527 110.662 270.1 111.663 268.695 111.93 268.594 113.865 268.898 118.731 269.663 125.301 273.867 128.587 278.32 131.194 281.852 133.838 288.043 132.739 288.043 132.489 288.043 131.881 287.363 131.39 286.531 130.606 285.203 130.337 285.078 129.204 285.509 126.266 286.626 123.482 285.601 122.078 282.886 121.229 281.244 121.101 277.694 121.842 276.311 122.59 274.912 121.114 273.429 117.534 271.981 113.962 270.537 113.147 270.78 111.636 273.74 110.136 276.682 110.23 281.709 111.845 284.868 113.388 287.888 115.817 290.236 118.785 291.578 120.953 292.558 120.996 292.617 119.551 292.606 118.708 292.6 117.187 292.155 116.171 291.618ZM125.831 282.806C126.124 282.453 126.521 281.535 126.715 280.764L127.066 279.364 125.368 280.078C123.426 280.895 123.017 281.627 123.906 282.698 124.667 283.615 125.138 283.641 125.831 282.806ZM155.556 289.576C155.095 289.278 155.032 289.077 155.398 289.073 155.732 289.069 156.148 289.295 156.322 289.576 156.714 290.21 156.537 290.21 155.556 289.576ZM141.424 268.848C140.92 267.534 142.702 259.611 144.29 256.109 148.996 245.729 157.437 238.492 168.368 235.462 172.665 234.272 182.077 234.01 184.505 235.013 185.803 235.549 185.401 235.671 180.388 236.26 173.536 237.065 168.71 238.479 163.746 241.136 153.8 246.46 146.185 255.892 143.088 266.721 142.204 269.816 141.93 270.166 141.424 268.848ZM211.555 241.3C204.054 239.877 195.582 235.872 190.953 231.561L187.986 228.797 190.795 230.61C192.339 231.607 195.495 233.327 197.806 234.432 211.7 241.077 228.241 240.318 241.355 232.433 245.121 230.169 252.488 223.793 252.55 222.745 252.609 221.74 248.028 216.15 244.248 212.614 237.34 206.152 230.451 201.735 222.072 198.399 219.471 197.363 217.202 196.287 217.028 196.006 216.843 195.706 217.108 195.605 217.671 195.761 218.197 195.907 219.892 196.311 221.437 196.658 228.348 198.213 238.187 202.995 245.005 208.113 249.151 211.225 256.691 218.619 258.438 221.285 259.574 223.019 259.217 223.627 254.373 228.229 247.882 234.395 241.944 237.716 232.673 240.368 227.022 241.984 217.401 242.409 211.555 241.3ZM223.735 234.349C224.578 234.074 226.761 233.376 228.587 232.799 234.795 230.835 245.951 224.248 245.951 222.546 245.951 221.547 239.095 215.298 235.137 212.691 233.171 211.395 231.689 210.208 231.844 210.052 232 209.897 233.89 210.777 236.044 212.008 240.873 214.767 248.842 222.079 248.367 223.316 247.028 226.806 229.3 235.065 223.526 234.889 222.229 234.85 222.233 234.839 223.735 234.349ZM140.288 110.274C139.615 110.004 139.193 109.656 139.349 109.5 139.506 109.343 140.286 109.569 141.083 110.001 142.687 110.87 142.199 111.038 140.288 110.274Z" fill="#2F2F2E" transform="matrix(1.03584 0 0 1 425.096 120.948)"/></g></g></g></g></svg>